<svg xmlns="http://www.w3.org/2000/svg" width="51" height="54" viewBox="0 0 51 54"><g><g><path fill="#fff" d="M49.07 48.61c0 .426-.34.772-.758.772h-5.256c-.407 0-.789.161-1.076.454L40 51.853l-1.98-2.017a1.497 1.497 0 0 0-1.076-.454h-5.256a.767.767 0 0 1-.759-.772V37.74c0-.427.34-.773.759-.773h16.624c.418 0 .759.346.759.772zM31.689 35C30.205 35 29 36.229 29 37.74v10.878c0 1.51 1.205 2.739 2.688 2.739h5.087l2.15 2.19a1.502 1.502 0 0 0 2.151 0l2.149-2.19h5.087c1.482 0 2.688-1.23 2.688-2.74V37.74c0-1.511-1.206-2.74-2.688-2.74z"/></g><g><path fill="#fff" d="M5.559 37.533l.392-.33.537-.516c.111-.11.28-.306.508-.588.228-.282.4-.537.517-.764.118-.227.228-.505.332-.836.103-.33.155-.667.155-1.011 0-1.004-.383-1.837-1.149-2.498-.766-.66-1.792-.99-3.076-.99-1.15 0-2.066.261-2.749.784C.342 31.307 0 31.857 0 32.435c0 .317.106.56.317.733.211.172.446.258.705.258.204 0 .385-.07.541-.21.157-.141.29-.291.4-.45.108-.16.313-.31.613-.45s.674-.211 1.124-.211c.64 0 1.151.153 1.533.459.381.306.572.738.572 1.296 0 .326-.078.642-.236.948-.157.306-.314.537-.471.694-.158.156-.394.37-.708.643l-.595.489c-.82.735-1.231 1.81-1.231 3.223 0 .436.072.735.216.898.143.164.386.245.728.245.683 0 1.025-.248 1.025-.743 0-.702.055-1.238.165-1.61.109-.371.396-.742.86-1.114z"/></g><g><path fill="#fff" d="M3.43 42c-.43 0-.776.147-1.038.441A1.536 1.536 0 0 0 2 43.5c0 .397.13.746.392 1.048.262.301.608.452 1.039.452.43 0 .8-.15 1.107-.452.308-.302.462-.65.462-1.048 0-.411-.154-.764-.462-1.059A1.547 1.547 0 0 0 3.431 42z"/></g><g><path fill="#fff" d="M25.323 20.216c0 .523.39.784 1.171.784.287 0 .554-.068.801-.206.247-.138.37-.33.37-.578 0-.908.056-2.422.168-4.54.111-2.12.167-3.633.167-4.54a.967.967 0 0 0-.43-.826c-.288-.207-.646-.31-1.077-.31-.43 0-.786.1-1.07.3a.966.966 0 0 0-.423.835c0 .908.054 2.422.162 4.54.107 2.12.161 3.633.161 4.54z"/></g><g><path fill="#fff" d="M26.504 26c.41 0 .762-.15 1.055-.452.294-.302.441-.65.441-1.048 0-.411-.147-.764-.44-1.059A1.438 1.438 0 0 0 26.503 23a1.44 1.44 0 0 0-1.073.441A1.459 1.459 0 0 0 25 24.5c0 .412.143.765.431 1.06.287.293.645.44 1.073.44z"/></g><g><path fill="#fff" d="M16.044 0H.956C.428 0 0 .448 0 1s.428 1 .956 1h15.088c.528 0 .956-.448.956-1s-.428-1-.956-1z"/></g><g><path fill="#fff" d="M17 5c0-.553-.428-1-.956-1H.956C.428 4 0 4.447 0 5c0 .552.428 1 .956 1h15.088c.528 0 .956-.448.956-1z"/></g><g><path fill="#fff" d="M.998 8A.998.998 0 0 0 0 9c0 .552.447 1 .998 1h8.004a.999.999 0 1 0 0-2z"/></g><g><path fill="#fff" d="M36 43a1 1 0 1 1-2 0 1 1 0 0 1 2 0z"/></g><g><path fill="#fff" d="M41 43a1 1 0 1 1-2 0 1 1 0 0 1 2 0z"/></g><g><path fill="#fff" d="M45 43a1 1 0 1 1-2 0 1 1 0 0 1 2 0z"/></g></g></svg>