<svg xmlns="http://www.w3.org/2000/svg" width="66" height="60" viewBox="0 0 66 60"><g><g><path fill="#4050dd" d="M33.162 28.193h-2.677a12.551 12.551 0 0 1-.985-4.91c0-1.406.227-2.777.673-4.086h3.289c1.674 0 3.037-1.386 3.037-3.09v-4.101a12.128 12.128 0 0 1 5.279-1.213c6.77 0 12.278 5.603 12.278 12.49 0 6.887-5.508 12.49-12.278 12.49-1.605 0-3.156-.308-4.62-.915v-2.601c0-2.241-1.792-4.064-3.996-4.064zm8.616-19.378c-1.811 0-3.61.355-5.279 1.034v-6.76c0-1.703-1.363-3.089-3.037-3.089h-13.08a.98.98 0 0 0-.973.989.98.98 0 0 0 .972.989h13.08c.603 0 1.094.499 1.094 1.112v13.017c0 .613-.49 1.112-1.093 1.112H27.16c-.438 0-.85.173-1.16.488l-2.504 2.548-2.504-2.548a1.616 1.616 0 0 0-1.16-.488h-6.3a1.104 1.104 0 0 1-1.094-1.112V3.09c0-.613.49-1.112 1.093-1.112h2.94a.98.98 0 0 0 .972-.989.98.98 0 0 0-.972-.988h-2.94c-1.675 0-3.038 1.385-3.038 3.09v13.016c0 1.704 1.363 3.09 3.038 3.09h6.176l2.63 2.676a1.623 1.623 0 0 0 2.319 0l2.63-2.676h.845a14.642 14.642 0 0 0-.576 4.086c0 1.7.283 3.344.84 4.91h-24.4C1.792 28.193 0 30.016 0 32.257v19.05c0 2.24 1.792 4.064 3.995 4.064l9.226.001 3.98 4.048a1.926 1.926 0 0 0 2.756 0l3.983-4.05h9.222c2.204 0 3.996-1.822 3.996-4.063v-8.34a.98.98 0 0 0-.972-.99.98.98 0 0 0-.972.99v8.34c0 1.15-.92 2.086-2.051 2.086h-9.222a1.92 1.92 0 0 0-1.379.581l-3.987 4.048-3.98-4.048a1.921 1.921 0 0 0-1.377-.58H3.995c-1.13 0-2.051-.937-2.051-2.087v-19.05c0-1.15.92-2.087 2.05-2.087h29.168c1.131 0 2.051.936 2.051 2.087v6.512a.98.98 0 0 0 .972.989.98.98 0 0 0 .973-.989v-1.798c1.478.518 3.026.78 4.62.78C49.62 37.752 56 31.262 56 23.284c0-7.977-6.38-14.468-14.222-14.468z"/></g><g><path fill="#4050dd" d="M64.07 52.61c0 .426-.34.772-.758.772h-5.256c-.407 0-.789.161-1.076.454L55 55.853l-1.98-2.017a1.497 1.497 0 0 0-1.076-.454h-5.256a.767.767 0 0 1-.759-.772V41.74c0-.427.34-.773.759-.773h16.624c.418 0 .759.346.759.772zM46.689 39C45.205 39 44 40.229 44 41.74v10.878c0 1.51 1.205 2.739 2.688 2.739h5.087l2.15 2.19a1.502 1.502 0 0 0 2.151 0l2.149-2.19h5.087c1.482 0 2.688-1.23 2.688-2.74V41.74c0-1.511-1.206-2.74-2.688-2.74z"/></g><g><path fill="#8b9dff" d="M20.559 41.533l.392-.33.537-.516c.111-.11.28-.306.508-.588.228-.282.4-.537.517-.764.118-.227.228-.505.332-.836.103-.33.155-.667.155-1.011 0-1.004-.383-1.837-1.149-2.498-.765-.66-1.791-.99-3.076-.99-1.15 0-2.065.261-2.749.784-.684.523-1.026 1.073-1.026 1.651 0 .317.106.56.317.733.211.172.446.258.705.258.204 0 .385-.07.541-.21.157-.141.29-.291.4-.45.108-.16.313-.31.613-.45s.674-.211 1.124-.211c.64 0 1.151.153 1.533.459.381.306.572.738.572 1.296 0 .326-.078.642-.236.948-.157.306-.314.537-.471.694-.158.156-.394.37-.708.643l-.595.489c-.82.735-1.231 1.81-1.231 3.223 0 .436.072.735.216.898.143.164.386.245.728.245.683 0 1.025-.248 1.025-.743 0-.702.055-1.238.165-1.61.109-.371.396-.742.86-1.114z"/></g><g><path fill="#8b9dff" d="M18.43 46c-.43 0-.776.147-1.038.441A1.536 1.536 0 0 0 17 47.5c0 .397.13.746.392 1.048.262.301.608.452 1.039.452.43 0 .8-.15 1.107-.452.308-.302.462-.65.462-1.048 0-.411-.154-.764-.462-1.059A1.547 1.547 0 0 0 18.431 46z"/></g><g><path fill="#8b9dff" d="M40.323 24.216c0 .523.39.784 1.171.784.287 0 .554-.068.801-.206.247-.138.37-.33.37-.578 0-.908.056-2.422.168-4.54.111-2.12.167-3.633.167-4.54a.967.967 0 0 0-.43-.826c-.288-.207-.646-.31-1.077-.31-.43 0-.786.1-1.07.3a.966.966 0 0 0-.423.835c0 .908.054 2.422.162 4.54.107 2.12.161 3.633.161 4.54z"/></g><g><path fill="#8b9dff" d="M41.504 30c.41 0 .762-.15 1.055-.452.294-.302.441-.65.441-1.048 0-.411-.147-.764-.44-1.059A1.438 1.438 0 0 0 41.503 27a1.44 1.44 0 0 0-1.073.441A1.459 1.459 0 0 0 40 28.5c0 .412.143.765.431 1.06.287.293.645.44 1.073.44z"/></g><g><path fill="#8b9dff" d="M31.044 4H15.956C15.428 4 15 4.448 15 5s.428 1 .956 1h15.088c.528 0 .956-.448.956-1s-.428-1-.956-1z"/></g><g><path fill="#8b9dff" d="M32 9c0-.553-.428-1-.956-1H15.956C15.428 8 15 8.447 15 9c0 .552.428 1 .956 1h15.088c.528 0 .956-.448.956-1z"/></g><g><path fill="#8b9dff" d="M15.998 12A.998.998 0 0 0 15 13c0 .552.447 1 .998 1h8.004a.999.999 0 1 0 0-2z"/></g><g><path fill="#8b9dff" d="M51 47a1 1 0 1 1-2 0 1 1 0 0 1 2 0z"/></g><g><path fill="#8b9dff" d="M56 47a1 1 0 1 1-2 0 1 1 0 0 1 2 0z"/></g><g><path fill="#8b9dff" d="M60 47a1 1 0 1 1-2 0 1 1 0 0 1 2 0z"/></g></g></svg>