<svg xmlns="http://www.w3.org/2000/svg" width="61" height="61" viewBox="0 0 61 61"><g><g clip-path="url(#clip-BF9562D2-6873-4DFB-840D-763BDA872FC4)"><g><path fill="#4050dd" d="M47 47h-2.043v4H26.574v2h18.383v3c0 1.657-1.372 3-3.064 3H19.424a3.088 3.088 0 0 1-2.655-1.5L15 58.5c.916 1.544 2.6 2.497 4.424 2.5h22.47c2.819-.003 5.103-2.24 5.106-5z"/></g><g><path fill="#8b9dff" d="M30 55h2v2h-2z"/></g><g><path fill="#4050dd" d="M26.716 35.014c-.11.102-.227.184-.338.279v-.483a7.173 7.173 0 0 0-3.84-6.356 5.143 5.143 0 0 0 1.499-5.67 5.083 5.083 0 0 0-4.774-3.365 5.083 5.083 0 0 0-4.773 3.364 5.143 5.143 0 0 0 1.5 5.67 7.173 7.173 0 0 0-3.84 6.357v.488c-.113-.093-.23-.18-.34-.279a11.297 11.297 0 0 1-3.672-7.376h1.979v-2.048H8.135c.497-5.405 4.747-9.685 10.112-10.186v1.996h2.033v-1.996c5.365.5 9.615 4.781 10.111 10.186h-1.98v2.048h1.978a11.297 11.297 0 0 1-3.673 7.376zM16.218 24.571c0-1.696 1.366-3.071 3.05-3.071 1.685 0 3.05 1.375 3.05 3.071 0 1.697-1.365 3.072-3.05 3.072-1.684 0-3.05-1.375-3.05-3.072zm2.034 11.262v2.001a11.084 11.084 0 0 1-4.067-1.182V34.81c0-2.827 2.276-5.12 5.083-5.12 2.808 0 5.084 2.293 5.084 5.12v1.842a11.095 11.095 0 0 1-4.067 1.185v-2.004zm17.285-8.19v-2.048h-3.102c-.507-6.533-5.661-11.723-12.15-12.233v-3.124h-2.033v3.124a13.13 13.13 0 0 0-2.034.319v-5.49h16.268V6.142H16.218V5.119c0-1.696 1.366-3.071 3.05-3.071h22.37c.742 0 1.46.273 2.017.767L45 1.28A5.057 5.057 0 0 0 41.637 0H19.268c-2.806.003-5.08 2.293-5.083 5.119v9.214c-4.579 1.931-7.7 6.28-8.083 11.262H3v2.048h3.104c.48 6.546 5.647 11.752 12.148 12.239V43h2.033v-3.118c6.5-.487 11.668-5.693 12.147-12.24z"/></g><g><path fill="#8b9dff" d="M37 6h20v10H37zm21 12a1 1 0 0 0 1-1V5a1 1 0 0 0-1-1H36a1 1 0 0 0-1 1v12a1 1 0 0 0 1 1z"/></g><g><path fill="#8b9dff" d="M39 8h4v2h-4z"/></g><g><path fill="#8b9dff" d="M45 8h10v2H45z"/></g><g><path fill="#8b9dff" d="M39 12h16v2H39z"/></g><g><path fill="#4050dd" d="M58.706 23.955L44.956 39.54l-3.495-3.494 15.584-13.752a1.177 1.177 0 0 1 1.661 1.661zM38.996 46h-4.568A4.617 4.617 0 0 0 35 43.764V42a5.004 5.004 0 0 1 4.595-4.984l4.38 4.384a5.003 5.003 0 0 1-4.98 4.6zm16.727-25.2L47 28.49V20h-2v10h.29l-5.69 5.02A7 7 0 0 0 33 42v1.764a2.6 2.6 0 0 1-1.446 2.341A1 1 0 0 0 32.001 48h7a7 7 0 0 0 6.98-6.6l14.225-16.122A3.176 3.176 0 0 0 57.823 20a3.17 3.17 0 0 0-2.1.8z"/></g><g><path fill="#8b9dff" d="M2 48h20v6H2zm-1 8h22a1 1 0 0 0 1-1v-8a1 1 0 0 0-1-1h-7v-5h-2v5H1a1 1 0 0 0-1 1v8a1 1 0 0 0 1 1z"/></g><g><path fill="#8b9dff" d="M4 50h5v2H4z"/></g><g><path fill="#8b9dff" d="M11 50h9v2h-9z"/></g><g><path fill="#8b9dff" d="M2 6h8v6H2zm-1 8h10a1 1 0 0 0 1-1V5a1 1 0 0 0-1-1H1a1 1 0 0 0-1 1v8a1 1 0 0 0 1 1z"/></g><g><path fill="#8b9dff" d="M4 8h4v2H4z"/></g></g></g></svg>