<svg xmlns="http://www.w3.org/2000/svg" width="1920" height="1000" viewBox="11 112 1920 1000"><defs><linearGradient id="pa4va" x1="1106.35" x2="1106.35" y1="-427.39" y2="809.54" gradientUnits="userSpaceOnUse"><stop offset="0" stop-color="#7f61fa"/><stop offset="1" stop-color="#2611c9"/></linearGradient><linearGradient id="pa4vb" x1="-272.16" x2="1865.05" y1="-360.29" y2="889.01" gradientUnits="userSpaceOnUse"><stop offset="0" stop-color="#3023ae"/><stop offset="1" stop-color="#c86dd7"/></linearGradient><linearGradient id="pa4vd" x1="542.17" x2="343.85" y1="609.43" y2="609.43" gradientUnits="userSpaceOnUse"><stop offset="0" stop-color="#fe9a8b"/><stop offset=".41" stop-color="#fd868c"/><stop offset=".73" stop-color="#f9748f"/><stop offset="1" stop-color="#f78ca0"/></linearGradient><linearGradient id="pa4ve" x1="655.72" x2="404.31" y1="540.72" y2="540.72" gradientUnits="userSpaceOnUse"><stop offset="0" stop-color="#fe9a8b"/><stop offset=".41" stop-color="#fd868c"/><stop offset=".73" stop-color="#f9748f"/><stop offset="1" stop-color="#f78ca0"/></linearGradient><linearGradient id="pa4vf" x1="1172.73" x2="1024.52" y1="246.15" y2="246.15" gradientUnits="userSpaceOnUse"><stop offset="0" stop-color="#fe9a8b"/><stop offset=".41" stop-color="#fd868c"/><stop offset=".73" stop-color="#f9748f"/><stop offset="1" stop-color="#f78ca0"/></linearGradient><linearGradient id="pa4vg" x1="1178.05" x2="1092.82" y1="170.92" y2="170.92" gradientUnits="userSpaceOnUse"><stop offset="0" stop-color="#fe9a8b"/><stop offset=".41" stop-color="#fd868c"/><stop offset=".73" stop-color="#f9748f"/><stop offset="1" stop-color="#f78ca0"/></linearGradient><clipPath id="pa4vc"><path d="M234.48-360.29l-506.64 870.832s1000.475 711.949 2095.304 39.387c1014.596-464.904-542.47-310.806-542.47-310.806z"/></clipPath></defs><g><g><path fill="#fff" d="M0 0h1920v1000H0z"/></g><g opacity=".09" transform="rotate(-30 1334 226)"><path fill="url(#pa4va)" d="M565.34-427.39L58.7 443.442s1000.475 711.949 2095.304 39.387c1014.596-464.904-542.47-310.806-542.47-310.806z"/></g><g transform="rotate(-30 1003 293.5)"><path fill="url(#pa4vb)" d="M234.48-360.29l-506.64 870.832s1000.475 711.949 2095.304 39.387c1014.596-464.904-542.47-310.806-542.47-310.806z"/></g><g clip-path="url(#pa4vc)" opacity=".19" transform="rotate(-9 454.5 602.5)"><path fill="url(#pa4vd)" d="M357.417 680.304c-13.451-1.884-17.618-12.35-9.242-23.21l36.964-48.024c8.34-10.846 22.103-28.648 30.435-39.477l36.946-48.03c8.386-10.836 19.395-9.32 24.489 3.474l63.478 159.432c5.11 12.832-1.757 21.72-15.227 19.786l-59.447-8.481c-13.406-1.916-35.494-5.02-48.933-6.982z"/></g><g clip-path="url(#pa4vc)" opacity=".19" transform="rotate(-30 574.5 547.5)"><path fill="url(#pa4ve)" d="M421.508 630.565c-17.051-2.388-22.333-15.655-11.715-29.423l46.857-60.876c10.571-13.75 28.02-36.317 38.581-50.044l46.835-60.886c10.631-13.736 24.586-11.815 31.043 4.404l80.469 202.105c6.477 16.267-2.227 27.533-19.303 25.082l-75.358-10.751c-16.994-2.43-44.994-6.364-62.03-8.85z"/></g><g clip-path="url(#pa4vc)" opacity=".13" transform="rotate(-60 1118.5 263)"><path fill="url(#pa4vf)" d="M1034.659 299.119c-10.052-1.408-13.166-9.23-6.907-17.346l27.624-35.889c6.232-8.105 16.518-21.41 22.745-29.502l27.61-35.894c6.268-8.098 14.495-6.965 18.302 2.596l47.439 119.147c3.818 9.59-1.313 16.232-11.38 14.787l-44.426-6.338c-10.019-1.432-26.526-3.752-36.569-5.217z"/></g><g clip-path="url(#pa4vc)" opacity=".13" transform=" scale(0.6) translate(1210, -620) rotate(45 50 50)"><path fill="url(#pa4vf)" d="M1034.659 299.119c-10.052-1.408-13.166-9.23-6.907-17.346l27.624-35.889c6.232-8.105 16.518-21.41 22.745-29.502l27.61-35.894c6.268-8.098 14.495-6.965 18.302 2.596l47.439 119.147c3.818 9.59-1.313 16.232-11.38 14.787l-44.426-6.338c-10.019-1.432-26.526-3.752-36.569-5.217z"/></g></g></svg>