<svg xmlns="http://www.w3.org/2000/svg" width="60" height="61" viewBox="0 0 60 61"><g><g><g><path fill="#fff" d="M42 57c-4.623 0-6.273-2.578-6.273-7v-1H25.273v1c0 4.422-1.65 7-6.273 7l2.09 2h19.865z"/></g><g><path fill="none" stroke="#fff" stroke-miterlimit="50" stroke-width="2" d="M59 41v0H1v0V4.257C1 2.46 2.422 1 4.176 1h51.649C57.578 1 59 2.459 59 4.257z"/></g><g><path fill="#fff" d="M1 37v8.824A3.176 3.176 0 0 0 4.176 49h51.648A3.176 3.176 0 0 0 59 45.824V37z"/><path fill="none" stroke="#fff" stroke-miterlimit="50" stroke-width="2" d="M1 37v8.824A3.176 3.176 0 0 0 4.176 49h51.648A3.176 3.176 0 0 0 59 45.824V37v0z"/></g><g><path fill="#fff" d="M46 61H15v-2.002c0-1.103.925-1.998 2.064-1.998h26.871c1.14 0 2.065.895 2.065 1.998z"/></g><g><g><path fill="#fff" d="M15.03 28.326L6.11 19.48l8.92-8.849a2.06 2.06 0 0 1 2.92.013 2.106 2.106 0 0 1-.018 2.977l-5.59 5.859 5.589 5.857c.827.815.835 2.154.017 2.978a2.057 2.057 0 0 1-2.918.012z"/></g><g><path fill="#fff" d="M44.967 28.326l8.92-8.847-8.92-8.849a2.06 2.06 0 0 0-2.92.013 2.106 2.106 0 0 0 .018 2.977l5.59 5.859-5.589 5.857a2.105 2.105 0 0 0-.017 2.978 2.057 2.057 0 0 0 2.918.012z"/></g><g><path fill="#fff" d="M25.991 28.662c-1.058-.54-1.486-1.862-.95-2.944l7.172-14.503c.528-1.068 1.795-1.499 2.84-.967 1.058.539 1.486 1.862.95 2.943L28.83 27.694c-.528 1.068-1.795 1.5-2.84.968z"/></g></g></g></g></svg>