<svg xmlns="http://www.w3.org/2000/svg" width="1360" height="650" viewBox="0 0 1360 650"><defs><clipPath id="21bua"><path d="M0 0h1360v650H0z"/></clipPath></defs><g><g><path fill="#5535b8" d="M0 0h1360v650H0z"/></g><g clip-path="url(#21bua)" opacity=".44"><path fill="none" stroke="#000" stroke-miterlimit="50" stroke-width="40" d="M1094 407c101.068 0 183-81.932 183-183s-81.932-183-183-183-183 81.932-183 183 81.932 183 183 183z"/></g><g clip-path="url(#21bua)" opacity=".44"><path fill="none" stroke="#000" stroke-miterlimit="50" stroke-width="40" d="M241 762c101.068 0 183-81.932 183-183s-81.932-183-183-183S58 477.932 58 579s81.932 183 183 183z"/></g><g clip-path="url(#21bua)" opacity=".44"><path fill="none" stroke="#000" stroke-miterlimit="50" stroke-width="20" d="M635.5 200c24.577 0 44.5-19.923 44.5-44.5S660.077 111 635.5 111 591 130.923 591 155.5s19.923 44.5 44.5 44.5z"/></g><g clip-path="url(#21bua)" opacity=".44"><path fill="none" stroke="#000" stroke-miterlimit="50" stroke-width="10" d="M755.5 305c15.74 0 28.5-12.76 28.5-28.5S771.24 248 755.5 248 727 260.76 727 276.5s12.76 28.5 28.5 28.5z"/></g></g></svg>