<svg xmlns="http://www.w3.org/2000/svg" width="16" height="17" viewBox="0 0 16 17"><g><g><path fill="#6b40be" d="M4.196 16.51a4.11 4.11 0 0 1-2.928-1.21A4.112 4.112 0 0 1 .06 12.374a4.11 4.11 0 0 1 1.208-2.927L9.831.883c1.225-1.225 3.13-1.17 4.428.13 1.3 1.299 1.355 3.202.13 4.427l-8.044 8.045a1.94 1.94 0 0 1-2.741 0 1.94 1.94 0 0 1 0-2.742l5.449-5.449a.47.47 0 1 1 .665.666l-5.45 5.449a.999.999 0 0 0 0 1.41 1 1 0 0 0 1.411 0l8.045-8.044c.845-.846.79-2.177-.13-3.097-.92-.92-2.251-.976-3.097-.13l-8.563 8.563A3.176 3.176 0 0 0 1 12.373c0 .857.331 1.66.933 2.262a3.176 3.176 0 0 0 2.262.933c.857 0 1.66-.331 2.262-.933l8.563-8.563a.47.47 0 1 1 .665.666L7.124 15.3a4.111 4.111 0 0 1-2.928 1.208z"/></g></g></svg>