<?xml version="1.0" encoding="utf-8"?>
<!-- Generator: Adobe Illustrator 20.1.0, SVG Export Plug-In . SVG Version: 6.00 Build 0)  -->
<svg version="1.1" id="Layer_1" xmlns="http://www.w3.org/2000/svg" xmlns:xlink="http://www.w3.org/1999/xlink" x="0px" y="0px"
	 viewBox="0 0 144 144" style="enable-background:new 0 0 144 144;" xml:space="preserve">
<style type="text/css">
	.st0{fill:none;stroke:#4050DD;stroke-linecap:round;stroke-linejoin:round;stroke-miterlimit:10;}
	.st1{opacity:0.3;fill:#8B9DFF;enable-background:new    ;}
	.st2{fill:#3D6CB4;}
	.st3{opacity:0.3;fill:#528AC8;enable-background:new    ;}
	.st4{fill:#FFFFFF;stroke:#4050DD;stroke-linecap:round;stroke-linejoin:round;stroke-miterlimit:10;}
	.st5{fill:#FFFFFF;stroke:#3D6CB4;stroke-linecap:round;stroke-linejoin:round;stroke-miterlimit:10;}
</style>
<g>
	<path class="st0" d="M30.2,64.2V39.5c0-2.1,1.7-3.9,3.9-3.9h75.5c2.1,0,3.9,1.7,3.9,3.9v11.1"/>
	<path class="st0" d="M113.4,87.1V106c0,2.1-1.7,3.9-3.9,3.9H34c-2.1,0-3.9-1.7-3.9-3.9V92.3"/>
	<path class="st1" d="M30.2,43.4v-3.8c0-2.2,1.8-4,4-4h75.3c2.2,0,4,1.8,4,4v3.8C113.4,43.4,30.2,43.4,30.2,43.4z"/>
	<path class="st0" d="M30.2,43.4v-3.8c0-2.2,1.8-4,4-4h75.3c2.2,0,4,1.8,4,4v3.8C113.4,43.4,30.2,43.4,30.2,43.4z"/>
	<circle class="st2" cx="35.2" cy="39.5" r="0.9"/>
	<circle class="st2" cx="38.8" cy="39.5" r="0.9"/>
	<path class="st1" d="M106.9,59.7H36.6c-1.3,0-2.4-1.1-2.4-2.4V52c0-1.3,1.1-2.4,2.4-2.4h70.3c1.3,0,2.4,1.1,2.4,2.4v5.2
		C109.3,58.6,108.3,59.7,106.9,59.7z"/>
	<path class="st1" d="M106.9,77H36.6c-1.3,0-2.4-1.1-2.4-2.4v-5.2c0-1.3,1.1-2.4,2.4-2.4h70.3c1.3,0,2.4,1.1,2.4,2.4v5.2
		C109.3,75.9,108.3,77,106.9,77z"/>
	<path class="st3" d="M106.9,94.3H36.6c-1.3,0-2.4-1.1-2.4-2.4v-5.2c0-1.3,1.1-2.4,2.4-2.4h70.3c1.3,0,2.4,1.1,2.4,2.4v5.2
		C109.3,93.2,108.3,94.3,106.9,94.3z"/>
	<circle class="st2" cx="42.3" cy="39.5" r="0.9"/>
	<path class="st4" d="M130.6,50.6H97.4c-5.7,0-10.5,4.8-10.5,10.5v15.2c0,5.7,4,10.9,10,10.9l0,0v9.5l10.8-9h22.9
		c5.7,0,10.3-5.6,10.3-11.3V61.1C140.9,55.3,136.3,50.6,130.6,50.6z"/>
	<path class="st5" d="M27,64.6h26c4.5,0,7.9,3.1,7.9,7.6V84c0,4.3-3.5,7.9-7.6,8.2c0,0-0.4,0-0.4,0v7.7l-7.9-7.3H27
		c-4.5,0-8.2-4.1-8.2-8.6V72.1C18.9,67.6,22.5,64.6,27,64.6z"/>
	<path class="st0" d="M27,64.6h26c4.5,0,7.9,3.1,7.9,7.6V84c0,4.3-3.5,7.9-7.6,8.2c0,0-0.4,0-0.4,0v7.7l-7.9-7.3H27
		c-4.5,0-8.2-4.1-8.2-8.6V72.1C18.9,67.6,22.5,64.6,27,64.6z"/>
	<line class="st0" x1="25.4" y1="71.6" x2="52.4" y2="71.6"/>
	<line class="st0" x1="25.4" y1="77.6" x2="48.4" y2="77.6"/>
	<line class="st0" x1="25.4" y1="83.6" x2="41.4" y2="83.6"/>
	<line class="st0" x1="96.4" y1="59.6" x2="130.4" y2="59.6"/>
	<line class="st0" x1="96.4" y1="67.6" x2="121.4" y2="67.6"/>
	<line class="st0" x1="96.4" y1="74.6" x2="113.4" y2="74.6"/>
	<g>
		<line class="st0" x1="6.8" y1="35.5" x2="6.8" y2="45.2"/>
		<line class="st0" x1="1.9" y1="40.4" x2="11.6" y2="40.4"/>
	</g>
	<g>
		<line class="st0" x1="17.9" y1="51.1" x2="17.9" y2="56.9"/>
		<line class="st0" x1="15" y1="54" x2="20.8" y2="54"/>
	</g>
	<g>
		<line class="st0" x1="133.9" y1="97.1" x2="133.9" y2="106.8"/>
		<line class="st0" x1="129.1" y1="101.9" x2="138.8" y2="101.9"/>
	</g>
</g>
</svg>
