<?xml version="1.0" encoding="UTF-8"?>
<!DOCTYPE svg PUBLIC "-//W3C//DTD SVG 1.1//EN" "http://www.w3.org/Graphics/SVG/1.1/DTD/svg11.dtd">
<!-- Creator: CorelDRAW X7 -->
<svg xmlns="http://www.w3.org/2000/svg" xml:space="preserve" width="202.706mm" height="44.7795mm" version="1.1" style="shape-rendering:geometricPrecision; text-rendering:geometricPrecision; image-rendering:optimizeQuality; fill-rule:evenodd; clip-rule:evenodd"
viewBox="0 0 20197 4462"
 xmlns:xlink="http://www.w3.org/1999/xlink">
 <defs>
  <style type="text/css">
   <![CDATA[
    .str0 {stroke:#5B5B5B;stroke-width:70.293}
    .fil1 {fill:#FEFEFE;fill-rule:nonzero}
    .fil0 {fill:#7E71B1;fill-rule:nonzero}
    .fil3 {fill:#09A299;fill-rule:nonzero}
    .fil2 {fill:#6C6C6C;fill-rule:nonzero}
   ]]>
  </style>
 </defs>
 <g id="Layer_x0020_1">
  <metadata id="CorelCorpID_0Corel-Layer"/>
  <path class="fil0 str0" d="M2646 4277c59,90 117,144 229,148 126,0 248,-108 248,-233 0,-77 -41,-140 -77,-194l-1227 -1847c-63,-99 -112,-166 -242,-166 -126,-4 -180,67 -243,166l-1231 1852c-36,54 -68,117 -68,184 0,130 117,234 243,238 117,0 180,-72 238,-157l1061 -1600 1069 1609z"/>
  <path class="fil1 str0" d="M3945 2327c58,90 116,144 229,149 126,0 247,-108 247,-234 0,-76 -41,-139 -77,-193l-1226 -1847c-63,-99 -113,-167 -243,-167 -126,-4 -180,68 -243,167l-1231 1851c-36,54 -68,117 -68,184 0,131 117,234 243,239 117,0 180,-72 238,-158l1061 -1600 1070 1609z"/>
  <g id="_1842449139232">
   <path class="fil2" d="M17714 3407l1117 -2280 236 0 1130 2280 -308 0c-314,-627 -626,-1260 -940,-1889 -313,632 -620,1257 -931,1889l-304 0z"/>
   <polygon class="fil2" points="15021,3407 15021,1127 15283,1127 16205,2523 17131,1127 17389,1127 17389,3407 17110,3407 17110,1627 16205,2975 15300,1627 15300,3407 "/>
   <polygon class="fil2" points="14061,3407 14061,1115 14348,1115 14348,3407 "/>
   <polygon class="fil2" points="12639,3407 12462,3407 11363,1127 11671,1127 12551,2954 13430,1127 13744,1127 "/>
   <polygon class="fil2" points="9427,3407 9427,1127 11220,1127 11220,1389 9710,1389 9710,2058 10623,2058 10623,2320 9710,2320 9710,3145 11313,3145 11313,3407 "/>
   <path class="fil2" d="M7732 1127c359,0 648,106 867,318 219,212 329,488 329,828 0,343 -108,618 -323,824 -217,207 -507,310 -873,310l-978 0 0 -2280 978 0zm0 262l-694 0 0 1756 694 0c280,0 502,-79 663,-237 161,-157 241,-370 241,-639 0,-264 -81,-477 -246,-638 -163,-161 -383,-242 -658,-242z"/>
  </g>
  <path class="fil3 str0" d="M5251 4278c59,90 117,144 229,148 126,0 248,-107 248,-233 0,-77 -41,-140 -77,-193l-1227 -1848c-63,-98 -112,-166 -242,-166 -126,-4 -180,68 -243,166l-1231 1852c-36,54 -68,117 -68,184 0,131 117,234 243,238 117,0 180,-71 238,-157l1061 -1600 1069 1609z"/>
 </g>
</svg>
