<?xml version="1.0" encoding="UTF-8"?>
<!DOCTYPE svg PUBLIC "-//W3C//DTD SVG 1.1//EN" "http://www.w3.org/Graphics/SVG/1.1/DTD/svg11.dtd">
<!-- Creator: CorelDRAW X7 -->
<svg xmlns="http://www.w3.org/2000/svg" xml:space="preserve" width="202.353mm" height="44.074mm" version="1.1" style="shape-rendering:geometricPrecision; text-rendering:geometricPrecision; image-rendering:optimizeQuality; fill-rule:evenodd; clip-rule:evenodd"
viewBox="0 0 20197 4399"
 xmlns:xlink="http://www.w3.org/1999/xlink">
 <defs>
  <style type="text/css">
   <![CDATA[
    .fil1 {fill:#FEFEFE;fill-rule:nonzero}
    .fil0 {fill:#7E71B1;fill-rule:nonzero}
    .fil2 {fill:#09A299;fill-rule:nonzero}
   ]]>
  </style>
 </defs>
 <g id="Layer_x0020_1">
  <metadata id="CorelCorpID_0Corel-Layer"/>
  <path class="fil0" d="M2616 4249c58,90 117,144 229,149 126,0 248,-108 248,-234 0,-77 -41,-140 -77,-194l-1229 -1850c-63,-99 -112,-167 -243,-167 -126,-4 -180,68 -243,167l-1233 1855c-36,54 -68,117 -68,184 0,131 117,234 243,239 117,0 180,-72 239,-158l1062 -1602 1072 1611z"/>
  <path class="fil1" d="M3916 2296c59,90 117,144 230,149 126,0 247,-108 247,-234 0,-77 -40,-140 -76,-194l-1229 -1850c-63,-99 -113,-167 -243,-167 -126,-4 -180,68 -243,167l-1234 1855c-36,54 -67,117 -67,184 0,131 117,234 243,239 117,0 180,-72 238,-158l1063 -1602 1071 1611z"/>
  <g id="_2011250289760">
   <path class="fil1" d="M17710 3378l1119 -2284 236 0 1132 2284 -309 0c-314,-628 -627,-1262 -941,-1893 -314,633 -622,1260 -933,1893l-304 0z"/>
   <polygon class="fil1" points="15011,3378 15011,1094 15274,1094 16198,2492 17126,1094 17384,1094 17384,3378 17104,3378 17104,1595 16198,2945 15291,1595 15291,3378 "/>
   <polygon class="fil1" points="14050,3378 14050,1081 14338,1081 14338,3378 "/>
   <polygon class="fil1" points="12626,3378 12448,3378 11347,1094 11656,1094 12537,2924 13418,1094 13733,1094 "/>
   <polygon class="fil1" points="9408,3378 9408,1094 11204,1094 11204,1357 9692,1357 9692,2026 10607,2026 10607,2289 9692,2289 9692,3115 11297,3115 11297,3378 "/>
   <path class="fil1" d="M7710 1094c360,0 649,106 869,318 219,213 329,489 329,830 0,343 -108,619 -324,826 -216,206 -507,310 -874,310l-979 0 0 -2284 979 0zm0 263l-695 0 0 1758 695 0c281,0 503,-79 664,-237 162,-158 242,-371 242,-640 0,-265 -82,-478 -246,-639 -164,-162 -384,-242 -660,-242z"/>
  </g>
  <path class="fil2" d="M5225 4250c59,90 117,144 230,149 126,0 247,-108 247,-234 0,-77 -40,-140 -76,-194l-1229 -1850c-63,-99 -113,-167 -243,-167 -126,-4 -180,68 -243,167l-1234 1855c-36,54 -67,117 -67,184 0,131 117,234 243,239 117,0 180,-72 238,-158l1063 -1602 1071 1611z"/>
 </g>
</svg>
