<?xml version="1.0" encoding="utf-8"?>
<!-- Generator: Adobe Illustrator 20.1.0, SVG Export Plug-In . SVG Version: 6.00 Build 0)  -->
<svg version="1.1" id="Layer_1" xmlns="http://www.w3.org/2000/svg" xmlns:xlink="http://www.w3.org/1999/xlink" x="0px" y="0px"
	 viewBox="0 0 144 144" style="enable-background:new 0 0 144 144;" xml:space="preserve">
<style type="text/css">
	.st0{fill:none;stroke:#FFFFFF;stroke-linecap:round;stroke-linejoin:round;stroke-miterlimit:10;}
	.st1{fill:none;stroke:#FFFFFF;stroke-miterlimit:10;}
	.st2{fill:#FFFFFF;stroke:#FFFFFF;stroke-miterlimit:10;}
	.st3{fill:#FFFFFF;stroke:#FFFFFF;stroke-linecap:round;stroke-linejoin:round;stroke-miterlimit:10;}
	.st4{opacity:0.3;fill:#FFFFFF;stroke:#FFFFFF;stroke-miterlimit:10;enable-background:new    ;}
</style>
<g>
	<path class="st0" d="M100.1,104.6v9.6c0,6.3-5.1,11.3-11.3,11.3H51.7c-6.3,0-11.3-5.1-11.3-11.3V31.8c0-6.3,5.1-11.3,11.3-11.3
		h37.2c6.3,0,11.3,5.1,11.3,11.3v22"/>
	<path class="st0" d="M40.3,32v-0.2c0-6.3,5.1-11.3,11.3-11.3h37.2c6.3,0,11.3,5.1,11.3,11.3V32H40.3z"/>
	<path class="st1" d="M40.2,32v-0.2c0-6.3,5.1-11.3,11.3-11.3h37.2c6.3,0,11.3,5.1,11.3,11.3V32H40.2z"/>
	<path class="st0" d="M100.1,114v0.2c0,6.3-5.1,11.3-11.3,11.3H51.7c-6.3,0-11.3-5.1-11.3-11.3V114H100.1z"/>
	<path class="st2" d="M100.1,114v0.2c0,6.3-5.1,11.3-11.3,11.3H51.7c-6.3,0-11.3-5.1-11.3-11.3V114H100.1z"/>
	<line class="st0" x1="64.9" y1="120.4" x2="75.5" y2="120.4"/>
	<line class="st0" x1="64.9" y1="26.3" x2="75.5" y2="26.3"/>
	<g>
		<line class="st0" x1="10.5" y1="50.5" x2="10.5" y2="61.7"/>
		<line class="st0" x1="16.8" y1="56.1" x2="4.3" y2="56.1"/>
	</g>
	<g>
		<line class="st0" x1="24.2" y1="77.8" x2="24.2" y2="85.3"/>
		<line class="st0" x1="27.9" y1="81.5" x2="20.5" y2="81.5"/>
	</g>
	<g>
		<path class="st3" d="M136.5,73.4l3.9-1.7l-4-9.3l-4.5,2c-1.7-2.2-3.5-3.9-5.4-5.2l1.7-4.8l-9.6-3.9l-1.8,4.6
			c-2.8-0.5-5.8-0.4-8.6,0.1l-1.7-4L97.8,55l1.7,4c-3.5,2.2-4.8,4-6.4,6.3l-4.8-1.7L84.6,73l4.8,2.3c-0.4,2.3-0.5,4.8,0,7.5
			l-4.9,2.1l4,9.3l4.3-1.9c1.8,2.9,4.1,5,6.9,6.9l-1.9,4.5l9.5,3.7l2.2-4.8c2.8,0.5,5,0.7,9-0.4l2,4.7l8.7-3.8l-2-4.7
			c2.2-1.6,4.4-3.8,5.9-6.2l4.6,1.8l3.8-9.5L137,83C137.4,79.8,137.4,76.7,136.5,73.4z M118.7,92.8c-7.7,3.3-16.6-0.2-20-7.9
			s0.2-16.6,7.9-20c7.7-3.3,16.6,0.2,20,7.9S126.4,89.4,118.7,92.8z"/>
		<path class="st4" d="M136.7,73.5l3.9-1.7l-4-9.3l-4.5,2c-1.7-2.2-3.5-3.9-5.4-5.2l1.7-4.8l-9.6-3.9l-1.8,4.6
			c-2.8-0.5-5.8-0.4-8.6,0.1l-1.7-4L98,54.9l1.7,4c-3.5,2.2-4.8,4-6.4,6.3l-4.8-1.7l-3.9,9.6l4.8,2.3c-0.4,2.3-0.5,4.8,0,7.5
			L84.6,85l4,9.3l4.3-1.9c1.8,2.9,4.1,5,6.9,6.9l-1.9,4.5l9.5,3.7l2.2-4.8c2.8,0.5,5,0.7,9-0.4l2,4.7l8.7-3.8l-2-4.7
			c2.2-1.6,4.4-3.8,5.9-6.2l4.6,1.8l3.8-9.5l-4.5-1.5C137.5,79.9,137.5,76.8,136.7,73.5z M118.7,92.8c-7.7,3.3-16.6-0.2-20-7.9
			s0.2-16.6,7.9-20c7.7-3.3,16.6,0.2,20,7.9S126.4,89.4,118.7,92.8z"/>
	</g>
	<line class="st0" x1="48.4" y1="44.6" x2="84.4" y2="44.6"/>
	<line class="st0" x1="48.4" y1="55.6" x2="73.4" y2="55.6"/>
	<g>
		<line class="st0" x1="126.4" y1="28.5" x2="126.4" y2="39.6"/>
		<line class="st0" x1="132.7" y1="34" x2="120.2" y2="34"/>
	</g>
</g>
</svg>
