<svg xmlns="http://www.w3.org/2000/svg" width="20" height="15" viewBox="0 0 20 15"><g><g><path fill="#fff" d="M15.468 8.132zm0 0c-.944-.023-1.734-.377-2.444-.931-.045-.035-.093-.124-.078-.169.238-.75.28-1.556.675-2.262.433-.773 1.065-1.216 1.961-1.18.932.038 1.628.496 2.008 1.35.365.817.231 1.602-.326 2.298-.462.579-1.073.889-1.795.894zm-4.56-3.423C10.04 3.307 9.336 1.827 8.846.25c-.057-.182-.133-.263-.332-.247-.23.019-.462.004-.693.004H6.49v5.76c0 .169-.006.338-.022.506-.081.809-.764 1.589-1.553 1.782-1.438.352-2.72-.651-2.725-2.14-.003-1.84 0-3.68 0-5.52V.071H.013C.008.154.003.215.003.276c0 1.929-.008 3.858.005 5.786.001.372.052.743.15 1.102.484 1.723 1.602 2.84 3.351 3.213 1.764.378 3.245-.198 4.386-1.591.72-.877.987-1.915.96-3.035-.004-.205 0-.411 0-.663.034.032.066.066.095.102.484.807.97 1.612 1.444 2.424.05.1.063.215.04.324-.336 1.58-.682 3.159-1.023 4.739-.117.543-.228 1.089-.346 1.653h2.308l.968-4.78c.02 0 .042.002.063.006.062.037.123.072.185.106 1.21.68 2.505.93 3.858.632 2.333-.511 3.85-2.801 3.491-5.187-.275-1.838-1.689-3.332-3.528-3.733-1.83-.4-3.598.33-4.627 1.943-.303.474-.516 1.006-.78 1.53-.024-.036-.062-.085-.094-.138z"/></g></g></svg>