<svg xmlns="http://www.w3.org/2000/svg" width="1360" height="738" viewBox="0 0 1360 738"><g><g opacity=".13" transform="rotate(-30 408.5 246)"><path fill="none" stroke="#979797" stroke-miterlimit="50" d="M408.5 469C562.864 469 688 384.382 688 280S562.864 91 408.5 91 129 175.618 129 280s125.136 189 279.5 189z"/></g><g opacity=".13" transform="rotate(-330 408.5 246)"><path fill="none" stroke="#979797" stroke-miterlimit="50" d="M408.5 469C562.864 469 688 384.382 688 280S562.864 91 408.5 91 129 175.618 129 280s125.136 189 279.5 189z"/></g><g opacity=".13" transform="rotate(-270 408.5 246)"><path fill="none" stroke="#979797" stroke-miterlimit="50" d="M408.5 469C562.864 469 688 384.382 688 280S562.864 91 408.5 91 129 175.618 129 280s125.136 189 279.5 189z"/></g><g opacity=".13" transform="rotate(-30 950.5 246)"><path fill="none" stroke="#979797" stroke-miterlimit="50" d="M950.5 469c154.364 0 279.5-84.618 279.5-189S1104.864 91 950.5 91 671 175.618 671 280s125.136 189 279.5 189z"/></g><g opacity=".13" transform="rotate(-330 950.5 246)"><path fill="none" stroke="#979797" stroke-miterlimit="50" d="M950.5 469c154.364 0 279.5-84.618 279.5-189S1104.864 91 950.5 91 671 175.618 671 280s125.136 189 279.5 189z"/></g><g opacity=".13" transform="rotate(-270 950.5 246)"><path fill="none" stroke="#979797" stroke-miterlimit="50" d="M950.5 469c154.364 0 279.5-84.618 279.5-189S1104.864 91 950.5 91 671 175.618 671 280s125.136 189 279.5 189z"/></g><g><path fill="#5535b8" d="M0 599.635S340 495 680 495s680 104.635 680 104.635v138H0z"/></g></g></svg>