<svg xmlns="http://www.w3.org/2000/svg" width="15" height="14" viewBox="0 0 15 14"><g><g><path fill="#fff" d="M0 13.99h3.53V4.375H0zM1.775 0C.702 0 0 .756 0 1.75 0 2.722.682 3.5 1.734 3.5h.02c1.095 0 1.775-.778 1.775-1.75C3.51.756 2.85 0 1.775 0zm9.564 4.375c-1.688 0-2.442.913-2.865 1.552v.03h-.02c.005-.01.014-.02.02-.03V4.596h-3.18c.043.88 0 9.394 0 9.394h3.18V8.743c0-.281.022-.56.106-.761.23-.562.752-1.142 1.63-1.142 1.151 0 1.61.862 1.61 2.124v5.026H15V8.603c0-2.886-1.568-4.228-3.66-4.228z"/></g></g></svg>