<svg xmlns="http://www.w3.org/2000/svg" xmlns:xlink="http://www.w3.org/1999/xlink" enable-background="new 0 0 144 144" version="1.1" xml:space="preserve" width="144" height="144"><rect id="backgroundrect" width="100%" height="100%" x="0" y="0" fill="none" stroke="none"/><g class="currentLayer" style=""><title>Layer 1</title><g id="svg_1" class="selected" fill="none" stroke="#ffffff" stroke-opacity="1"><path d="M99.14,104.6v9.584   c0,6.25-5.066,11.316-11.316,11.316H50.664c-6.25,0-11.316-5.066-11.316-11.316V31.83c0-6.25,5.066-11.316,11.316-11.316h37.159   c6.25,0,11.316,5.066,11.316,11.316v22.03" fill="none" stroke="#ffffff" stroke-linecap="round" stroke-linejoin="round" stroke-miterlimit="10" id="svg_2" fill-opacity="1" stroke-opacity="1"/><path d="M39.348,32v-0.17   c0-6.25,5.066-11.316,11.316-11.316h37.159c6.25,0,11.316,5.066,11.316,11.316V32H39.348z" fill="none" stroke="#ffffff" stroke-linecap="round" stroke-linejoin="round" stroke-miterlimit="10" id="svg_3" fill-opacity="1" stroke-opacity="1"/><path d="M39.182,32v-0.17c0-6.25,5.066-11.316,11.316-11.316h37.159   c6.25,0,11.316,5.066,11.316,11.316V32H39.182z" fill="none" opacity="0.3" id="svg_4" fill-opacity="1" stroke="#ffffff" stroke-opacity="1"/><path d="M99.14,114.015v0.17   c0,6.25-5.066,11.316-11.316,11.316H50.664c-6.25,0-11.316-5.066-11.316-11.316v-0.17H99.14z" fill="none" stroke="#ffffff" stroke-linecap="round" stroke-linejoin="round" stroke-miterlimit="10" id="svg_5" fill-opacity="1" stroke-opacity="1"/><path d="M99.14,114.015v0.17c0,6.25-5.066,11.316-11.316,11.316H50.664   c-6.25,0-11.316-5.066-11.316-11.316v-0.17H99.14z" fill="none" opacity="0.3" id="svg_6" fill-opacity="1" stroke="#ffffff" stroke-opacity="1"/><line fill="#FFFFFF" stroke="#ffffff" stroke-linecap="round" stroke-linejoin="round" stroke-miterlimit="10" x1="63.94300079345703" x2="74.54499816894531" y1="120.3740005493164" y2="120.3740005493164" id="svg_7"/><line fill="#FFFFFF" stroke="#ffffff" stroke-linecap="round" stroke-linejoin="round" stroke-miterlimit="10" x1="63.94300079345703" x2="74.54499816894531" y1="26.256999969482422" y2="26.256999969482422" id="svg_8"/><g id="svg_9" fill="none" fill-opacity="1" stroke="#ffffff" stroke-opacity="1"><line fill="none" stroke="#ffffff" stroke-linecap="round" stroke-linejoin="round" stroke-miterlimit="10" x1="9.527999877929688" x2="9.527999877929688" y1="50.525001525878906" y2="61.654998779296875" id="svg_10"/><line fill="none" stroke="#ffffff" stroke-linecap="round" stroke-linejoin="round" stroke-miterlimit="10" x1="15.756999969482422" x2="3.2980000972747803" y1="56.09000015258789" y2="56.09000015258789" id="svg_11"/></g><g id="svg_12" fill="none" fill-opacity="1" stroke="#ffffff" stroke-opacity="1"><line fill="none" stroke="#ffffff" stroke-linecap="round" stroke-linejoin="round" stroke-miterlimit="10" x1="23.194000244140625" x2="23.194000244140625" y1="77.81500244140625" y2="85.27400207519531" id="svg_13"/><line fill="none" stroke="#ffffff" stroke-linecap="round" stroke-linejoin="round" stroke-miterlimit="10" x1="26.923999786376953" x2="19.46500015258789" y1="81.54399871826172" y2="81.54399871826172" id="svg_14"/></g><g id="svg_15" fill="none" fill-opacity="1" stroke="#ffffff" stroke-opacity="1"><path d="M135.544,73.38    l3.94-1.709l-4.028-9.287l-4.532,1.965c-1.676-2.216-3.472-3.867-5.425-5.172l1.74-4.835l-9.567-3.864l-1.813,4.563    c-2.803-0.462-5.845-0.435-8.568,0.07l-1.748-4.029l-8.668,3.759l1.748,4.029c-3.468,2.18-4.789,3.984-6.368,6.347l-4.831-1.742    l-3.862,9.566l4.758,2.26c-0.382,2.317-0.454,4.78,0.019,7.517l-4.891,2.121l4.028,9.287l4.3-1.865    c1.819,2.889,4.094,5.006,6.856,6.852l-1.906,4.452l9.484,3.672l2.211-4.849c2.803,0.462,5.004,0.686,8.966-0.356l2.045,4.715    l8.668-3.759l-2.045-4.715c2.23-1.643,4.35-3.794,5.929-6.156l4.611,1.837l3.752-9.518l-4.481-1.471    C136.407,79.787,136.411,76.682,135.544,73.38z M117.738,92.764c-7.699,3.339-16.646-0.195-19.985-7.894    c-3.339-7.699,0.195-16.646,7.894-19.985c7.699-3.339,16.646,0.195,19.985,7.894C128.971,80.477,125.437,89.425,117.738,92.764z" fill="none" stroke="#ffffff" stroke-linecap="round" stroke-linejoin="round" stroke-miterlimit="10" id="svg_16" fill-opacity="1" stroke-opacity="1"/><path d="M135.655,73.463l3.94-1.709l-4.028-9.287l-4.532,1.965    c-1.676-2.216-3.472-3.867-5.425-5.172l1.74-4.835l-9.567-3.864l-1.813,4.563c-2.803-0.462-5.845-0.435-8.568,0.07l-1.748-4.029    l-8.668,3.759l1.748,4.029c-3.468,2.18-4.789,3.984-6.368,6.347l-4.831-1.742l-3.862,9.566l4.758,2.26    c-0.382,2.317-0.454,4.78,0.019,7.517l-4.891,2.121l4.028,9.287l4.3-1.865c1.819,2.889,4.094,5.006,6.856,6.852l-1.906,4.452    l9.484,3.672l2.211-4.849c2.803,0.462,5.004,0.686,8.966-0.356l2.045,4.715l8.668-3.759l-2.045-4.715    c2.23-1.643,4.35-3.794,5.929-6.156l4.611,1.837l3.752-9.518l-4.481-1.471C136.517,79.87,136.521,76.765,135.655,73.463z     M117.738,92.764c-7.699,3.339-16.646-0.195-19.985-7.894c-3.339-7.699,0.195-16.646,7.894-19.985    c7.699-3.339,16.646,0.195,19.985,7.894C128.971,80.477,125.437,89.425,117.738,92.764z" fill="none" opacity="0.3" id="svg_17" fill-opacity="1" stroke="#ffffff" stroke-opacity="1"/></g><line fill="none" stroke="#ffffff" stroke-linecap="round" stroke-linejoin="round" stroke-miterlimit="10" x1="47.36000061035156" x2="83.36000061035156" y1="44.55500030517578" y2="44.55500030517578" id="svg_18"/><line fill="none" stroke="#ffffff" stroke-linecap="round" stroke-linejoin="round" stroke-miterlimit="10" x1="47.36000061035156" x2="72.36000061035156" y1="55.55500030517578" y2="55.55500030517578" id="svg_19"/><g id="svg_20" fill="none" fill-opacity="1" stroke="#ffffff" stroke-opacity="1"><line fill="none" stroke="#ffffff" stroke-linecap="round" stroke-linejoin="round" stroke-miterlimit="10" x1="125.44499969482422" x2="125.44499969482422" y1="28.457000732421875" y2="39.58700180053711" id="svg_21"/><line fill="none" stroke="#ffffff" stroke-linecap="round" stroke-linejoin="round" stroke-miterlimit="10" x1="131.6739959716797" x2="119.21499633789062" y1="34.02199935913086" y2="34.02199935913086" id="svg_22"/></g></g><g id="svg_23"/><g id="svg_24"/><g id="svg_25"/><g id="svg_26"/><g id="svg_27"/><g id="svg_28"/></g></svg>